<svg xmlns="http://www.w3.org/2000/svg" viewBox="0 0 64 64" role="img" aria-label="Alfa5men logo">
  <defs>
    <linearGradient id="shield-gradient" x1="0" y1="0" x2="1" y2="1">
      <stop offset="0%" stop-color="#a855f7" />
      <stop offset="100%" stop-color="#6366f1" />
    </linearGradient>
  </defs>
  <path
    d="M32 6l20 9v17c0 15-9.7 28.2-20 31-10.3-2.8-20-16-20-31V15l20-9z"
    fill="url(#shield-gradient)"
    stroke="rgba(255,255,255,0.75)"
    stroke-width="1"
  />
  <path
    d="M20 27c2.6-4.8 9-6.7 14.4-4.6 2.2.9 3.8 2.3 4.9 4.1.8 1.4.4 3.1-1 3.9-1.4.7-3.1.3-3.9-1.1-.6-1-1.5-1.7-2.6-2.1-2.5-1-5.5-.1-6.9 1.9-.9 1.3-.7 2.9.5 4l12 11.3c2.5 2.3 3 5.8 1.3 8.4-2.7 4.1-8.1 5.8-13 4.2-2.6-.8-4.6-2.4-5.8-4.4-.9-1.4-.3-3.2 1.1-3.9 1.4-.8 3.2-.3 4 1.1.7 1.1 1.9 2 3.1 2.4 2.2.7 4.8.2 6.1-1.3.7-1 .6-2.4-.5-3.3L20.7 37C17.6 34.2 16.6 29.6 20 27z"
    fill="rgba(255,255,255,0.92)"
    transform="translate(1.5 -6)"
  />
</svg>
